<mxfile host="app.diagrams.net" modified="2023-11-21T23:08:14.714Z" agent="Mozilla/5.0 (Macintosh; Intel Mac OS X 10_15_7) AppleWebKit/537.36 (KHTML, like Gecko) Chrome/119.0.0.0 Safari/537.36" version="22.1.3" etag="2r90IynyEVqFJInOcnX4" type="github">
  <diagram name="Page-1" id="MjXt-zt_uOk7DKIyNJcR">
    <mxGraphModel>
      <root>
        <mxCell id="0" />
        <mxCell id="1" parent="0" />
      </root>
    </mxGraphModel>
  </diagram>
</mxfile>
